<?xml version="1.0" encoding="utf-8"?>
<!-- Generator: Adobe Illustrator 20.1.0, SVG Export Plug-In . SVG Version: 6.00 Build 0)  -->
<svg version="1.1" id="Layer_1" xmlns="http://www.w3.org/2000/svg" xmlns:xlink="http://www.w3.org/1999/xlink" x="0px" y="0px"
	 viewBox="0 0 70 70" style="enable-background:new 0 0 70 70;" xml:space="preserve">
<style type="text/css">
	.st0{fill:#010101;}
</style>
<path class="st0" d="M61.8,37.5L61.8,37.5l-14.2-21h-0.2c0,0-5.7-2.1-9.4,3.7l1.4,0.9c2.5-3.9,6.2-3.2,7.1-3l12.8,18.7
	c-1.8-0.5-4.6-0.9-8.2-0.9s-7.3,0.5-11.2,1.4l-0.7,0.2v0.9c-3.4-1.4-7.1-0.5-8.9,0.2v-0.9l-0.7-0.2c-3.7-0.9-7.5-1.4-11.2-1.4
	c-3.4,0-6.2,0.5-8,0.7L23,18.1c1.4-0.7,4.8-1.4,7.3,2.5l1.4-0.9c-3.4-5.7-9.1-3.4-9.1-3.4h-0.2L8.2,37.1H7.9v7.3
	c0,0.2-0.2,3.7,2.3,6.4c2.1,2.1,5,3.2,9.1,3.2c4.3,0,7.5-1.1,9.4-3.2c2.3-2.5,1.8-5.5,1.8-5.5v-5.5c1.4-0.5,5.5-1.8,8.9,0v5.5
	c0,0.2-0.2,3.2,1.8,5.7c1.8,2.1,5,3.2,9.4,3.2c4.1,0,7.3-1.1,9.1-3.2c2.5-2.7,2.3-6.2,2.3-6.2L61.8,37.5z"/>
</svg>
